<svg xmlns="http://www.w3.org/2000/svg" xmlns:xlink="http://www.w3.org/1999/xlink" width="1024px" height="400px"><style type="text/css">
path { fill: none; stroke: rgb(51,51,51); }
path.series { stroke: #6b63ff; }
rect.background { fill: rgb(255,255,255); stroke: none; }

text {
	stroke-width: 0;
	stroke: none;
	fill: rgba(51,51,51,1.0);
	font-size: 12.8px;
	font-family: 'Roboto Medium', sans-serif;
}
</style><rect class="background" rx="8" x="0" y="0" width="1024px" height="400px" /><rect y="0" width="1024px" height="400px" class="background" rx="8" x="0"></rect><path stroke-width="2" class="series" d="M 58 346 L 87 263 L 101 181 L 108 98 L 959 16" /><path d="M 58 346 L 87 263 L 101 181 L 108 98 L 959 16" stroke-width="2" class="series"></path><path stroke-width="2" d="M 959 346 L 959.000000 15.000000" /><path stroke-width="2" d="M 959 346 L 959.000000 15.000000"></path><path stroke-width="2" d="M 959 346 L 964 346" /><path stroke-width="2" d="M 959 346 L 964 346"></path><text xmlns="http://www.w3.org/2000/svg" x="969" y="352">1</text><path stroke-width="2" d="M 959 308 L 964 308" /><path d="M 959 308 L 964 308" stroke-width="2"></path><text xmlns="http://www.w3.org/2000/svg" x="969" y="314">1</text><path stroke-width="2" d="M 959 272 L 964 272" /><path stroke-width="2" d="M 959 272 L 964 272"></path><text xmlns="http://www.w3.org/2000/svg" x="969" y="278">2</text><path stroke-width="2" d="M 959 235 L 964 235" /><path stroke-width="2" d="M 959 235 L 964 235"></path><text xmlns="http://www.w3.org/2000/svg" x="969" y="241">2</text><path d="M 959 199 L 964 199" stroke-width="2" /><path stroke-width="2" d="M 959 199 L 964 199"></path><text xmlns="http://www.w3.org/2000/svg" x="969" y="205">3</text><path stroke-width="2" d="M 959 162 L 964 162" /><path stroke-width="2" d="M 959 162 L 964 162"></path><text xmlns="http://www.w3.org/2000/svg" x="969" y="168">3</text><path stroke-width="2" d="M 959 125 L 964 125" /><path stroke-width="2" d="M 959 125 L 964 125"></path><text xmlns="http://www.w3.org/2000/svg" x="969" y="131">4</text><path stroke-width="2" d="M 959 88 L 964 88" /><path d="M 959 88 L 964 88" stroke-width="2"></path><text xmlns="http://www.w3.org/2000/svg" x="969" y="94">4</text><path stroke-width="2" d="M 959 52 L 964 52" /><path d="M 959 52 L 964 52" stroke-width="2"></path><text xmlns="http://www.w3.org/2000/svg" x="969" y="58">5</text><path stroke-width="2" d="M 959 16 L 964 16" /><path stroke-width="2" d="M 959 16 L 964 16"></path><text xmlns="http://www.w3.org/2000/svg" x="969" y="22">5</text><text transform="rotate(90.00,987,175)" xmlns="http://www.w3.org/2000/svg" x="987" y="175">Stargazers</text><path stroke-width="2" d="M 57.000000 346.000000 L 959 346" /><path stroke-width="2" d="M 57.000000 346.000000 L 959 346"></path><path stroke-width="2" d="M 58 346 L 58 351" /><path stroke-width="2" d="M 58 346 L 58 351"></path><text xmlns="http://www.w3.org/2000/svg" x="25" y="368">2024-05-10</text><path d="M 159 346 L 159 351" stroke-width="2" /><path stroke-width="2" d="M 159 346 L 159 351"></path><text xmlns="http://www.w3.org/2000/svg" x="126" y="368">2024-05-10</text><path stroke-width="2" d="M 259 346 L 259 351" /><path stroke-width="2" d="M 259 346 L 259 351"></path><text x="226" y="368" xmlns="http://www.w3.org/2000/svg">2024-05-10</text><path stroke-width="2" d="M 359 346 L 359 351" /><path stroke-width="2" d="M 359 346 L 359 351"></path><text x="326" y="368" xmlns="http://www.w3.org/2000/svg">2024-05-10</text><path d="M 459 346 L 459 351" stroke-width="2" /><path stroke-width="2" d="M 459 346 L 459 351"></path><text xmlns="http://www.w3.org/2000/svg" x="426" y="368">2024-05-10</text><path stroke-width="2" d="M 559 346 L 559 351" /><path stroke-width="2" d="M 559 346 L 559 351"></path><text y="368" xmlns="http://www.w3.org/2000/svg" x="526">2024-05-10</text><path stroke-width="2" d="M 659 346 L 659 351" /><path d="M 659 346 L 659 351" stroke-width="2"></path><text xmlns="http://www.w3.org/2000/svg" x="626" y="368">2024-05-10</text><path stroke-width="2" d="M 759 346 L 759 351" /><path stroke-width="2" d="M 759 346 L 759 351"></path><text xmlns="http://www.w3.org/2000/svg" x="726" y="368">2024-05-10</text><path stroke-width="2" d="M 859 346 L 859 351" /><path stroke-width="2" d="M 859 346 L 859 351"></path><text y="368" xmlns="http://www.w3.org/2000/svg" x="826">2024-05-10</text><path stroke-width="2" d="M 959 346 L 959 351" /><path stroke-width="2" d="M 959 346 L 959 351"></path><text xmlns="http://www.w3.org/2000/svg" x="926" y="368">2024-05-10</text><text xmlns="http://www.w3.org/2000/svg" x="494" y="390">Time</text></svg>