<svg xmlns="http://www.w3.org/2000/svg" xmlns:xlink="http://www.w3.org/1999/xlink" width="1024px" height="400px"><style type="text/css">
path { fill: none; stroke: rgb(51,51,51); }
path.series { stroke: #6b63ff; }
rect.background { fill: rgb(255,255,255); stroke: none; }

text {
	stroke-width: 0;
	stroke: none;
	fill: rgba(51,51,51,1.0);
	font-size: 12.8px;
	font-family: 'Roboto Medium', sans-serif;
}
</style><rect x="0" y="0" width="1024px" height="400px" class="background" rx="8" /><rect x="0" y="0" width="1024px" height="400px" class="background" rx="8"></rect><path stroke-width="2" class="series" d="M 58 -9223372036854775462 L 941 -9223372036854775462" /><path stroke-width="2" class="series" d="M 58 -9223372036854775462 L 941 -9223372036854775462"></path><path stroke-width="2" d="M 941 346 L 941.000000 9223372036854775808.000000" /><path stroke-width="2" d="M 941 346 L 941.000000 9223372036854775808.000000"></path><path stroke-width="2" d="M 941 -9223372036854775462 L 946 -9223372036854775462" /><path stroke-width="2" d="M 941 -9223372036854775462 L 946 -9223372036854775462"></path><text xmlns="http://www.w3.org/2000/svg" x="951" y="-9223372036854775456">NaN</text><path stroke-width="2" d="M 941 -9223372036854775462 L 946 -9223372036854775462" /><path stroke-width="2" d="M 941 -9223372036854775462 L 946 -9223372036854775462"></path><text y="-9223372036854775456" xmlns="http://www.w3.org/2000/svg" x="951">NaN</text><path stroke-width="2" d="M 941 -9223372036854775462 L 946 -9223372036854775462" /><path d="M 941 -9223372036854775462 L 946 -9223372036854775462" stroke-width="2"></path><text xmlns="http://www.w3.org/2000/svg" x="951" y="-9223372036854775456">NaN</text><path stroke-width="2" d="M 941 -9223372036854775462 L 946 -9223372036854775462" /><path stroke-width="2" d="M 941 -9223372036854775462 L 946 -9223372036854775462"></path><text x="951" y="-9223372036854775456" xmlns="http://www.w3.org/2000/svg">NaN</text><path d="M 941 -9223372036854775462 L 946 -9223372036854775462" stroke-width="2" /><path stroke-width="2" d="M 941 -9223372036854775462 L 946 -9223372036854775462"></path><text x="951" y="-9223372036854775456" xmlns="http://www.w3.org/2000/svg">NaN</text><path stroke-width="2" d="M 941 -9223372036854775462 L 946 -9223372036854775462" /><path stroke-width="2" d="M 941 -9223372036854775462 L 946 -9223372036854775462"></path><text xmlns="http://www.w3.org/2000/svg" x="951" y="-9223372036854775456">NaN</text><path stroke-width="2" d="M 941 -9223372036854775462 L 946 -9223372036854775462" /><path stroke-width="2" d="M 941 -9223372036854775462 L 946 -9223372036854775462"></path><text xmlns="http://www.w3.org/2000/svg" x="951" y="-9223372036854775456">NaN</text><path stroke-width="2" d="M 941 -9223372036854775462 L 946 -9223372036854775462" /><path stroke-width="2" d="M 941 -9223372036854775462 L 946 -9223372036854775462"></path><text xmlns="http://www.w3.org/2000/svg" x="951" y="-9223372036854775456">NaN</text><path stroke-width="2" d="M 941 -9223372036854775462 L 946 -9223372036854775462" /><path stroke-width="2" d="M 941 -9223372036854775462 L 946 -9223372036854775462"></path><text x="951" y="-9223372036854775456" xmlns="http://www.w3.org/2000/svg">NaN</text><path stroke-width="2" d="M 941 -9223372036854775462 L 946 -9223372036854775462" /><path stroke-width="2" d="M 941 -9223372036854775462 L 946 -9223372036854775462"></path><text xmlns="http://www.w3.org/2000/svg" x="951" y="-9223372036854775456">NaN</text><text transform="rotate(90.00,987,-4611686018427388629)" xmlns="http://www.w3.org/2000/svg" x="987" y="-4611686018427388629">Stargazers</text><path stroke-width="2" d="M 57.000000 346.000000 L 941 346" /><path stroke-width="2" d="M 57.000000 346.000000 L 941 346"></path><path d="M 58 346 L 58 351" stroke-width="2" /><path stroke-width="2" d="M 58 346 L 58 351"></path><text y="368" xmlns="http://www.w3.org/2000/svg" x="25">2024-05-09</text><path d="M 158 346 L 158 351" stroke-width="2" /><path stroke-width="2" d="M 158 346 L 158 351"></path><text xmlns="http://www.w3.org/2000/svg" x="125" y="368">2024-05-09</text><path stroke-width="2" d="M 257 346 L 257 351" /><path stroke-width="2" d="M 257 346 L 257 351"></path><text xmlns="http://www.w3.org/2000/svg" x="224" y="368">2024-05-09</text><path stroke-width="2" d="M 356 346 L 356 351" /><path stroke-width="2" d="M 356 346 L 356 351"></path><text x="323" y="368" xmlns="http://www.w3.org/2000/svg">2024-05-09</text><path stroke-width="2" d="M 455 346 L 455 351" /><path stroke-width="2" d="M 455 346 L 455 351"></path><text xmlns="http://www.w3.org/2000/svg" x="422" y="368">2024-05-09</text><path stroke-width="2" d="M 554 346 L 554 351" /><path stroke-width="2" d="M 554 346 L 554 351"></path><text xmlns="http://www.w3.org/2000/svg" x="521" y="368">2024-05-09</text><path stroke-width="2" d="M 648 346 L 648 351" /><path stroke-width="2" d="M 648 346 L 648 351"></path><text y="368" xmlns="http://www.w3.org/2000/svg" x="615">2024-05-09</text><path stroke-width="2" d="M 747 346 L 747 351" /><path stroke-width="2" d="M 747 346 L 747 351"></path><text xmlns="http://www.w3.org/2000/svg" x="714" y="368">2024-05-09</text><path stroke-width="2" d="M 846 346 L 846 351" /><path stroke-width="2" d="M 846 346 L 846 351"></path><text xmlns="http://www.w3.org/2000/svg" x="813" y="368">2024-05-09</text><path stroke-width="2" d="M 941 346 L 941 351" /><path d="M 941 346 L 941 351" stroke-width="2"></path><text xmlns="http://www.w3.org/2000/svg" x="908" y="368">2024-05-09</text><text xmlns="http://www.w3.org/2000/svg" x="485" y="390">Time</text></svg>