<svg xmlns="http://www.w3.org/2000/svg" xmlns:xlink="http://www.w3.org/1999/xlink" width="1024px" height="400px"><style type="text/css">
path { fill: none; stroke: rgb(51,51,51); }
path.series { stroke: #6b63ff; }
rect.background { fill: rgb(255,255,255); stroke: none; }

text {
	stroke-width: 0;
	stroke: none;
	fill: rgba(51,51,51,1.0);
	font-size: 12.8px;
	font-family: 'Roboto Medium', sans-serif;
}
</style><rect x="0" y="0" width="1024px" height="400px" class="background" rx="8" /><rect class="background" rx="8" x="0" y="0" width="1024px" height="400px"></rect><path d="M 58 345 L 59 344 L 59 344 L 59 343 L 60 343 L 60 342 L 60 342 L 60 341 L 60 341 L 60 340 L 60 340 L 60 339 L 60 339 L 60 338 L 60 338 L 61 337 L 61 336 L 62 336 L 62 335 L 63 335 L 63 334 L 64 334 L 64 333 L 64 333 L 64 332 L 64 332 L 64 331 L 66 331 L 66 330 L 68 330 L 69 329 L 69 328 L 71 328 L 74 327 L 75 327 L 75 326 L 75 326 L 76 325 L 77 325 L 79 324 L 81 324 L 81 323 L 83 323 L 83 322 L 84 322 L 85 321 L 86 320 L 88 320 L 92 319 L 93 319 L 93 318 L 93 318 L 93 317 L 98 317 L 98 316 L 98 316 L 100 315 L 100 315 L 102 314 L 114 314 L 117 313 L 119 313 L 119 312 L 125 311 L 130 311 L 134 310 L 141 310 L 153 309 L 155 309 L 155 308 L 158 308 L 161 307 L 164 307 L 166 306 L 174 306 L 176 305 L 178 305 L 184 304 L 187 303 L 192 303 L 194 302 L 203 302 L 212 301 L 213 301 L 221 300 L 222 300 L 229 299 L 231 299 L 235 298 L 239 298 L 239 297 L 241 297 L 243 296 L 244 295 L 245 295 L 245 294 L 245 294 L 248 293 L 248 293 L 248 292 L 253 292 L 254 291 L 254 291 L 256 290 L 256 290 L 261 289 L 264 289 L 271 288 L 272 287 L 274 287 L 281 286 L 282 286 L 292 285 L 302 285 L 306 284 L 307 284 L 307 283 L 308 283 L 308 282 L 311 282 L 312 281 L 313 281 L 316 280 L 317 280 L 318 279 L 320 278 L 323 278 L 333 277 L 333 277 L 336 276 L 338 276 L 339 275 L 343 275 L 343 274 L 344 274 L 348 273 L 349 273 L 349 272 L 349 272 L 349 271 L 349 270 L 352 270 L 356 269 L 359 269 L 360 268 L 361 268 L 361 267 L 361 267 L 362 266 L 365 266 L 367 265 L 367 265 L 368 264 L 369 264 L 372 263 L 373 262 L 374 262 L 376 261 L 376 261 L 376 260 L 380 260 L 387 259 L 389 259 L 390 258 L 392 258 L 392 257 L 392 257 L 393 256 L 393 256 L 398 255 L 399 254 L 399 254 L 400 253 L 400 253 L 401 252 L 402 252 L 402 251 L 402 251 L 402 250 L 402 250 L 403 249 L 403 249 L 403 248 L 403 248 L 404 247 L 404 247 L 404 246 L 405 245 L 405 245 L 405 244 L 406 244 L 407 243 L 408 243 L 411 242 L 414 242 L 419 241 L 420 241 L 420 240 L 421 240 L 421 239 L 422 239 L 427 238 L 428 237 L 429 237 L 430 236 L 432 236 L 432 235 L 440 235 L 442 234 L 443 234 L 444 233 L 444 233 L 446 232 L 447 232 L 449 231 L 449 231 L 449 230 L 449 229 L 450 229 L 450 228 L 451 228 L 451 227 L 451 227 L 454 226 L 454 226 L 456 225 L 458 225 L 458 224 L 460 224 L 460 223 L 461 223 L 462 222 L 482 221 L 483 221 L 485 220 L 485 220 L 486 219 L 494 219 L 500 218 L 506 218 L 506 217 L 507 217 L 507 216 L 508 216 L 510 215 L 511 215 L 513 214 L 514 214 L 516 213 L 516 212 L 518 212 L 521 211 L 524 211 L 527 210 L 529 210 L 531 209 L 531 209 L 532 208 L 533 208 L 533 207 L 534 207 L 536 206 L 537 206 L 537 205 L 539 204 L 539 204 L 541 203 L 542 203 L 544 202 L 547 202 L 547 201 L 549 201 L 550 200 L 550 200 L 550 199 L 550 199 L 551 198 L 554 198 L 555 197 L 555 196 L 556 196 L 557 195 L 557 195 L 557 194 L 557 194 L 558 193 L 558 193 L 559 192 L 562 192 L 562 191 L 563 191 L 564 190 L 565 190 L 565 189 L 567 188 L 567 188 L 568 187 L 568 187 L 568 186 L 570 186 L 570 185 L 577 185 L 578 184 L 578 184 L 580 183 L 581 183 L 582 182 L 583 182 L 584 181 L 585 181 L 585 180 L 588 179 L 588 179 L 589 178 L 593 178 L 593 177 L 594 177 L 594 176 L 594 176 L 594 175 L 594 175 L 596 174 L 596 174 L 596 173 L 596 173 L 596 172 L 597 171 L 597 171 L 601 170 L 601 170 L 602 169 L 605 169 L 609 168 L 609 168 L 609 167 L 609 167 L 610 166 L 611 166 L 612 165 L 612 165 L 613 164 L 614 163 L 615 163 L 617 162 L 617 162 L 619 161 L 619 161 L 619 160 L 621 160 L 621 159 L 621 159 L 622 158 L 622 158 L 623 157 L 624 157 L 625 156 L 625 155 L 627 155 L 627 154 L 630 154 L 631 153 L 632 153 L 634 152 L 635 152 L 636 151 L 638 151 L 640 150 L 640 150 L 641 149 L 641 149 L 642 148 L 642 148 L 643 147 L 643 146 L 643 146 L 643 145 L 644 145 L 645 144 L 645 144 L 645 143 L 645 143 L 645 142 L 645 142 L 645 141 L 646 141 L 646 140 L 646 140 L 646 139 L 646 138 L 646 138 L 646 137 L 646 137 L 647 136 L 647 136 L 647 135 L 647 135 L 647 134 L 647 134 L 647 133 L 649 133 L 649 132 L 649 132 L 650 131 L 653 130 L 654 130 L 654 129 L 655 129 L 656 128 L 656 128 L 656 127 L 657 127 L 658 126 L 658 126 L 659 125 L 659 125 L 660 124 L 660 124 L 663 123 L 663 122 L 664 122 L 665 121 L 668 121 L 668 120 L 668 120 L 670 119 L 670 119 L 671 118 L 671 118 L 671 117 L 672 117 L 674 116 L 675 116 L 675 115 L 675 115 L 676 114 L 677 113 L 677 113 L 678 112 L 679 112 L 679 111 L 682 111 L 683 110 L 685 110 L 686 109 L 687 109 L 688 108 L 688 108 L 688 107 L 689 107 L 689 106 L 689 105 L 690 105 L 690 104 L 691 104 L 691 103 L 691 103 L 691 102 L 692 102 L 692 101 L 692 101 L 693 100 L 693 100 L 694 99 L 694 99 L 694 98 L 694 97 L 694 97 L 694 96 L 694 96 L 694 95 L 694 95 L 694 94 L 694 94 L 695 93 L 696 93 L 700 92 L 701 92 L 701 91 L 701 91 L 702 90 L 703 89 L 704 89 L 704 88 L 706 88 L 707 87 L 707 87 L 710 86 L 711 86 L 713 85 L 718 85 L 718 84 L 720 84 L 721 83 L 724 83 L 724 82 L 725 82 L 728 81 L 729 80 L 730 80 L 735 79 L 735 79 L 738 78 L 740 78 L 741 77 L 743 77 L 745 76 L 753 76 L 753 75 L 755 75 L 758 74 L 765 74 L 771 73 L 771 72 L 774 72 L 783 71 L 791 71 L 805 70 L 807 70 L 809 69 L 812 69 L 815 68 L 820 68 L 821 67 L 825 67 L 827 66 L 828 66 L 832 65 L 833 64 L 833 64 L 834 63 L 839 63 L 840 62 L 841 62 L 841 61 L 844 61 L 845 60 L 845 60 L 851 59 L 852 59 L 853 58 L 854 58 L 855 57 L 856 56 L 856 56 L 858 55 L 859 55 L 860 54 L 860 54 L 861 53 L 863 53 L 865 52 L 868 52 L 869 51 L 869 51 L 871 50 L 872 50 L 873 49 L 875 49 L 875 48 L 876 47 L 879 47 L 879 46 L 879 46 L 882 45 L 883 45 L 884 44 L 884 44 L 884 43 L 885 43 L 885 42 L 887 42 L 889 41 L 892 41 L 893 40 L 894 39 L 894 39 L 895 38 L 896 38 L 900 37 L 904 37 L 906 36 L 906 36 L 907 35 L 907 35 L 910 34 L 913 34 L 915 33 L 916 33 L 920 32 L 922 31 L 923 31 L 925 30 L 925 30 L 925 29 L 926 29 L 927 28 L 928 28 L 929 27 L 929 27 L 931 26 L 931 26 L 935 25 L 936 25 L 938 24 L 938 23 L 939 23 L 939 22 L 940 22 L 941 21 L 945 21 L 945 20 L 945 20" stroke-width="2" class="series" /><path stroke-width="2" class="series" d="M 58 345 L 59 344 L 59 344 L 59 343 L 60 343 L 60 342 L 60 342 L 60 341 L 60 341 L 60 340 L 60 340 L 60 339 L 60 339 L 60 338 L 60 338 L 61 337 L 61 336 L 62 336 L 62 335 L 63 335 L 63 334 L 64 334 L 64 333 L 64 333 L 64 332 L 64 332 L 64 331 L 66 331 L 66 330 L 68 330 L 69 329 L 69 328 L 71 328 L 74 327 L 75 327 L 75 326 L 75 326 L 76 325 L 77 325 L 79 324 L 81 324 L 81 323 L 83 323 L 83 322 L 84 322 L 85 321 L 86 320 L 88 320 L 92 319 L 93 319 L 93 318 L 93 318 L 93 317 L 98 317 L 98 316 L 98 316 L 100 315 L 100 315 L 102 314 L 114 314 L 117 313 L 119 313 L 119 312 L 125 311 L 130 311 L 134 310 L 141 310 L 153 309 L 155 309 L 155 308 L 158 308 L 161 307 L 164 307 L 166 306 L 174 306 L 176 305 L 178 305 L 184 304 L 187 303 L 192 303 L 194 302 L 203 302 L 212 301 L 213 301 L 221 300 L 222 300 L 229 299 L 231 299 L 235 298 L 239 298 L 239 297 L 241 297 L 243 296 L 244 295 L 245 295 L 245 294 L 245 294 L 248 293 L 248 293 L 248 292 L 253 292 L 254 291 L 254 291 L 256 290 L 256 290 L 261 289 L 264 289 L 271 288 L 272 287 L 274 287 L 281 286 L 282 286 L 292 285 L 302 285 L 306 284 L 307 284 L 307 283 L 308 283 L 308 282 L 311 282 L 312 281 L 313 281 L 316 280 L 317 280 L 318 279 L 320 278 L 323 278 L 333 277 L 333 277 L 336 276 L 338 276 L 339 275 L 343 275 L 343 274 L 344 274 L 348 273 L 349 273 L 349 272 L 349 272 L 349 271 L 349 270 L 352 270 L 356 269 L 359 269 L 360 268 L 361 268 L 361 267 L 361 267 L 362 266 L 365 266 L 367 265 L 367 265 L 368 264 L 369 264 L 372 263 L 373 262 L 374 262 L 376 261 L 376 261 L 376 260 L 380 260 L 387 259 L 389 259 L 390 258 L 392 258 L 392 257 L 392 257 L 393 256 L 393 256 L 398 255 L 399 254 L 399 254 L 400 253 L 400 253 L 401 252 L 402 252 L 402 251 L 402 251 L 402 250 L 402 250 L 403 249 L 403 249 L 403 248 L 403 248 L 404 247 L 404 247 L 404 246 L 405 245 L 405 245 L 405 244 L 406 244 L 407 243 L 408 243 L 411 242 L 414 242 L 419 241 L 420 241 L 420 240 L 421 240 L 421 239 L 422 239 L 427 238 L 428 237 L 429 237 L 430 236 L 432 236 L 432 235 L 440 235 L 442 234 L 443 234 L 444 233 L 444 233 L 446 232 L 447 232 L 449 231 L 449 231 L 449 230 L 449 229 L 450 229 L 450 228 L 451 228 L 451 227 L 451 227 L 454 226 L 454 226 L 456 225 L 458 225 L 458 224 L 460 224 L 460 223 L 461 223 L 462 222 L 482 221 L 483 221 L 485 220 L 485 220 L 486 219 L 494 219 L 500 218 L 506 218 L 506 217 L 507 217 L 507 216 L 508 216 L 510 215 L 511 215 L 513 214 L 514 214 L 516 213 L 516 212 L 518 212 L 521 211 L 524 211 L 527 210 L 529 210 L 531 209 L 531 209 L 532 208 L 533 208 L 533 207 L 534 207 L 536 206 L 537 206 L 537 205 L 539 204 L 539 204 L 541 203 L 542 203 L 544 202 L 547 202 L 547 201 L 549 201 L 550 200 L 550 200 L 550 199 L 550 199 L 551 198 L 554 198 L 555 197 L 555 196 L 556 196 L 557 195 L 557 195 L 557 194 L 557 194 L 558 193 L 558 193 L 559 192 L 562 192 L 562 191 L 563 191 L 564 190 L 565 190 L 565 189 L 567 188 L 567 188 L 568 187 L 568 187 L 568 186 L 570 186 L 570 185 L 577 185 L 578 184 L 578 184 L 580 183 L 581 183 L 582 182 L 583 182 L 584 181 L 585 181 L 585 180 L 588 179 L 588 179 L 589 178 L 593 178 L 593 177 L 594 177 L 594 176 L 594 176 L 594 175 L 594 175 L 596 174 L 596 174 L 596 173 L 596 173 L 596 172 L 597 171 L 597 171 L 601 170 L 601 170 L 602 169 L 605 169 L 609 168 L 609 168 L 609 167 L 609 167 L 610 166 L 611 166 L 612 165 L 612 165 L 613 164 L 614 163 L 615 163 L 617 162 L 617 162 L 619 161 L 619 161 L 619 160 L 621 160 L 621 159 L 621 159 L 622 158 L 622 158 L 623 157 L 624 157 L 625 156 L 625 155 L 627 155 L 627 154 L 630 154 L 631 153 L 632 153 L 634 152 L 635 152 L 636 151 L 638 151 L 640 150 L 640 150 L 641 149 L 641 149 L 642 148 L 642 148 L 643 147 L 643 146 L 643 146 L 643 145 L 644 145 L 645 144 L 645 144 L 645 143 L 645 143 L 645 142 L 645 142 L 645 141 L 646 141 L 646 140 L 646 140 L 646 139 L 646 138 L 646 138 L 646 137 L 646 137 L 647 136 L 647 136 L 647 135 L 647 135 L 647 134 L 647 134 L 647 133 L 649 133 L 649 132 L 649 132 L 650 131 L 653 130 L 654 130 L 654 129 L 655 129 L 656 128 L 656 128 L 656 127 L 657 127 L 658 126 L 658 126 L 659 125 L 659 125 L 660 124 L 660 124 L 663 123 L 663 122 L 664 122 L 665 121 L 668 121 L 668 120 L 668 120 L 670 119 L 670 119 L 671 118 L 671 118 L 671 117 L 672 117 L 674 116 L 675 116 L 675 115 L 675 115 L 676 114 L 677 113 L 677 113 L 678 112 L 679 112 L 679 111 L 682 111 L 683 110 L 685 110 L 686 109 L 687 109 L 688 108 L 688 108 L 688 107 L 689 107 L 689 106 L 689 105 L 690 105 L 690 104 L 691 104 L 691 103 L 691 103 L 691 102 L 692 102 L 692 101 L 692 101 L 693 100 L 693 100 L 694 99 L 694 99 L 694 98 L 694 97 L 694 97 L 694 96 L 694 96 L 694 95 L 694 95 L 694 94 L 694 94 L 695 93 L 696 93 L 700 92 L 701 92 L 701 91 L 701 91 L 702 90 L 703 89 L 704 89 L 704 88 L 706 88 L 707 87 L 707 87 L 710 86 L 711 86 L 713 85 L 718 85 L 718 84 L 720 84 L 721 83 L 724 83 L 724 82 L 725 82 L 728 81 L 729 80 L 730 80 L 735 79 L 735 79 L 738 78 L 740 78 L 741 77 L 743 77 L 745 76 L 753 76 L 753 75 L 755 75 L 758 74 L 765 74 L 771 73 L 771 72 L 774 72 L 783 71 L 791 71 L 805 70 L 807 70 L 809 69 L 812 69 L 815 68 L 820 68 L 821 67 L 825 67 L 827 66 L 828 66 L 832 65 L 833 64 L 833 64 L 834 63 L 839 63 L 840 62 L 841 62 L 841 61 L 844 61 L 845 60 L 845 60 L 851 59 L 852 59 L 853 58 L 854 58 L 855 57 L 856 56 L 856 56 L 858 55 L 859 55 L 860 54 L 860 54 L 861 53 L 863 53 L 865 52 L 868 52 L 869 51 L 869 51 L 871 50 L 872 50 L 873 49 L 875 49 L 875 48 L 876 47 L 879 47 L 879 46 L 879 46 L 882 45 L 883 45 L 884 44 L 884 44 L 884 43 L 885 43 L 885 42 L 887 42 L 889 41 L 892 41 L 893 40 L 894 39 L 894 39 L 895 38 L 896 38 L 900 37 L 904 37 L 906 36 L 906 36 L 907 35 L 907 35 L 910 34 L 913 34 L 915 33 L 916 33 L 920 32 L 922 31 L 923 31 L 925 30 L 925 30 L 925 29 L 926 29 L 927 28 L 928 28 L 929 27 L 929 27 L 931 26 L 931 26 L 935 25 L 936 25 L 938 24 L 938 23 L 939 23 L 939 22 L 940 22 L 941 21 L 945 21 L 945 20 L 945 20"></path><path stroke-width="2" d="M 945 346 L 945.000000 15.000000" /><path d="M 945 346 L 945.000000 15.000000" stroke-width="2"></path><path stroke-width="2" d="M 945 346 L 950 346" /><path stroke-width="2" d="M 945 346 L 950 346"></path><text y="352" xmlns="http://www.w3.org/2000/svg" x="955">0</text><path stroke-width="2" d="M 945 309 L 950 309" /><path stroke-width="2" d="M 945 309 L 950 309"></path><text xmlns="http://www.w3.org/2000/svg" x="955" y="315">69</text><path stroke-width="2" d="M 945 272 L 950 272" /><path stroke-width="2" d="M 945 272 L 950 272"></path><text xmlns="http://www.w3.org/2000/svg" x="955" y="278">138</text><path stroke-width="2" d="M 945 235 L 950 235" /><path stroke-width="2" d="M 945 235 L 950 235"></path><text y="241" xmlns="http://www.w3.org/2000/svg" x="955">207</text><path stroke-width="2" d="M 945 199 L 950 199" /><path stroke-width="2" d="M 945 199 L 950 199"></path><text xmlns="http://www.w3.org/2000/svg" x="955" y="205">276</text><path stroke-width="2" d="M 945 162 L 950 162" /><path stroke-width="2" d="M 945 162 L 950 162"></path><text xmlns="http://www.w3.org/2000/svg" x="955" y="168">345</text><path stroke-width="2" d="M 945 125 L 950 125" /><path d="M 945 125 L 950 125" stroke-width="2"></path><text xmlns="http://www.w3.org/2000/svg" x="955" y="131">414</text><path stroke-width="2" d="M 945 88 L 950 88" /><path stroke-width="2" d="M 945 88 L 950 88"></path><text xmlns="http://www.w3.org/2000/svg" x="955" y="94">483</text><path stroke-width="2" d="M 945 52 L 950 52" /><path stroke-width="2" d="M 945 52 L 950 52"></path><text x="955" y="58" xmlns="http://www.w3.org/2000/svg">552</text><path stroke-width="2" d="M 945 16 L 950 16" /><path stroke-width="2" d="M 945 16 L 950 16"></path><text xmlns="http://www.w3.org/2000/svg" x="955" y="22">620</text><text xmlns="http://www.w3.org/2000/svg" x="987" y="175" transform="rotate(90.00,987,175)">Stargazers</text><path stroke-width="2" d="M 57.000000 346.000000 L 945 346" /><path stroke-width="2" d="M 57.000000 346.000000 L 945 346"></path><path stroke-width="2" d="M 58 346 L 58 351" /><path stroke-width="2" d="M 58 346 L 58 351"></path><text xmlns="http://www.w3.org/2000/svg" x="25" y="368">2022-11-13</text><path stroke-width="2" d="M 157 346 L 157 351" /><path stroke-width="2" d="M 157 346 L 157 351"></path><text x="124" y="368" xmlns="http://www.w3.org/2000/svg">2023-01-12</text><path stroke-width="2" d="M 256 346 L 256 351" /><path stroke-width="2" d="M 256 346 L 256 351"></path><text xmlns="http://www.w3.org/2000/svg" x="223" y="368">2023-03-14</text><path stroke-width="2" d="M 354 346 L 354 351" /><path stroke-width="2" d="M 354 346 L 354 351"></path><text xmlns="http://www.w3.org/2000/svg" x="321" y="368">2023-05-13</text><path stroke-width="2" d="M 453 346 L 453 351" /><path d="M 453 346 L 453 351" stroke-width="2"></path><text xmlns="http://www.w3.org/2000/svg" x="420" y="368">2023-07-12</text><path stroke-width="2" d="M 551 346 L 551 351" /><path d="M 551 346 L 551 351" stroke-width="2"></path><text xmlns="http://www.w3.org/2000/svg" x="518" y="368">2023-09-10</text><path stroke-width="2" d="M 650 346 L 650 351" /><path stroke-width="2" d="M 650 346 L 650 351"></path><text y="368" xmlns="http://www.w3.org/2000/svg" x="617">2023-11-10</text><path stroke-width="2" d="M 748 346 L 748 351" /><path stroke-width="2" d="M 748 346 L 748 351"></path><text xmlns="http://www.w3.org/2000/svg" x="715" y="368">2024-01-09</text><path stroke-width="2" d="M 847 346 L 847 351" /><path stroke-width="2" d="M 847 346 L 847 351"></path><text xmlns="http://www.w3.org/2000/svg" x="814" y="368">2024-03-09</text><path stroke-width="2" d="M 945 346 L 945 351" /><path stroke-width="2" d="M 945 346 L 945 351"></path><text xmlns="http://www.w3.org/2000/svg" x="912" y="368">2024-05-09</text><text y="390" xmlns="http://www.w3.org/2000/svg" x="487">Time</text></svg>