<svg xmlns="http://www.w3.org/2000/svg" xmlns:xlink="http://www.w3.org/1999/xlink" width="1024px" height="400px"><style type="text/css">
path { fill: none; stroke: rgb(51,51,51); }
path.series { stroke: #6b63ff; }
rect.background { fill: rgb(255,255,255); stroke: none; }

text {
	stroke-width: 0;
	stroke: none;
	fill: rgba(51,51,51,1.0);
	font-size: 12.8px;
	font-family: 'Roboto Medium', sans-serif;
}
</style><rect x="0" y="0" width="1024px" height="400px" class="background" rx="8" /><rect y="0" width="1024px" height="400px" class="background" rx="8" x="0"></rect><path stroke-width="2" class="series" d="M 58 344 L 59 343 L 61 342 L 67 341 L 86 340 L 90 338 L 100 337 L 106 336 L 125 335 L 127 334 L 130 333 L 133 331 L 133 330 L 133 329 L 133 328 L 139 327 L 140 325 L 144 324 L 144 323 L 150 322 L 156 321 L 159 320 L 168 318 L 172 317 L 179 316 L 180 315 L 181 314 L 181 313 L 186 311 L 193 310 L 194 309 L 196 308 L 204 307 L 204 305 L 204 304 L 204 303 L 204 302 L 205 301 L 210 300 L 212 298 L 219 297 L 220 296 L 222 295 L 223 294 L 235 292 L 241 291 L 246 290 L 250 289 L 253 288 L 258 287 L 260 285 L 271 284 L 276 283 L 283 282 L 294 281 L 304 280 L 305 278 L 314 277 L 317 276 L 321 275 L 328 274 L 330 272 L 336 271 L 337 270 L 338 269 L 338 268 L 348 267 L 357 265 L 359 264 L 362 263 L 368 262 L 369 261 L 371 259 L 380 258 L 385 257 L 387 256 L 389 255 L 404 254 L 404 252 L 407 251 L 408 250 L 409 249 L 411 248 L 418 247 L 422 245 L 424 244 L 430 243 L 432 242 L 444 241 L 450 239 L 453 238 L 468 237 L 472 236 L 474 235 L 475 234 L 480 232 L 482 231 L 486 230 L 490 229 L 493 228 L 493 226 L 495 225 L 500 224 L 514 223 L 517 222 L 522 221 L 524 219 L 541 218 L 541 217 L 542 216 L 543 215 L 544 214 L 549 212 L 554 211 L 554 210 L 554 209 L 555 208 L 561 206 L 562 205 L 564 204 L 564 203 L 567 202 L 568 201 L 569 199 L 569 198 L 570 197 L 574 196 L 575 195 L 577 193 L 583 192 L 583 191 L 602 190 L 618 189 L 621 188 L 621 186 L 621 185 L 624 184 L 624 183 L 624 182 L 626 181 L 626 179 L 626 178 L 626 177 L 627 176 L 627 175 L 628 173 L 628 172 L 629 171 L 629 170 L 631 169 L 631 168 L 633 166 L 634 165 L 635 164 L 636 163 L 636 162 L 638 160 L 638 159 L 638 158 L 640 157 L 642 156 L 644 155 L 652 153 L 656 152 L 659 151 L 659 150 L 659 149 L 659 148 L 660 146 L 660 145 L 674 144 L 685 143 L 694 142 L 695 140 L 706 139 L 708 138 L 715 137 L 715 136 L 715 135 L 721 133 L 721 132 L 721 131 L 721 130 L 722 129 L 722 127 L 723 126 L 723 125 L 723 124 L 724 123 L 725 122 L 729 120 L 733 119 L 733 118 L 746 117 L 747 116 L 763 115 L 764 113 L 767 112 L 767 111 L 770 110 L 770 109 L 776 107 L 778 106 L 783 105 L 784 104 L 784 103 L 784 102 L 799 100 L 801 99 L 804 98 L 806 97 L 809 96 L 809 94 L 810 93 L 815 92 L 815 91 L 816 90 L 816 89 L 817 87 L 818 86 L 821 85 L 822 84 L 822 83 L 826 82 L 827 80 L 827 79 L 829 78 L 829 77 L 836 76 L 837 74 L 839 73 L 846 72 L 848 71 L 852 70 L 852 69 L 853 67 L 858 66 L 860 65 L 861 64 L 866 63 L 872 61 L 873 60 L 875 59 L 887 58 L 888 57 L 889 56 L 891 54 L 895 53 L 896 52 L 897 51 L 901 50 L 901 49 L 908 47 L 909 46 L 909 45 L 910 44 L 910 43 L 911 41 L 918 40 L 919 39 L 925 38 L 927 37 L 927 36 L 928 34 L 928 33 L 932 32 L 943 31 L 943 30 L 944 28 L 944 27 L 945 26 L 945 25 L 945 24 L 945 23" /><path stroke-width="2" class="series" d="M 58 344 L 59 343 L 61 342 L 67 341 L 86 340 L 90 338 L 100 337 L 106 336 L 125 335 L 127 334 L 130 333 L 133 331 L 133 330 L 133 329 L 133 328 L 139 327 L 140 325 L 144 324 L 144 323 L 150 322 L 156 321 L 159 320 L 168 318 L 172 317 L 179 316 L 180 315 L 181 314 L 181 313 L 186 311 L 193 310 L 194 309 L 196 308 L 204 307 L 204 305 L 204 304 L 204 303 L 204 302 L 205 301 L 210 300 L 212 298 L 219 297 L 220 296 L 222 295 L 223 294 L 235 292 L 241 291 L 246 290 L 250 289 L 253 288 L 258 287 L 260 285 L 271 284 L 276 283 L 283 282 L 294 281 L 304 280 L 305 278 L 314 277 L 317 276 L 321 275 L 328 274 L 330 272 L 336 271 L 337 270 L 338 269 L 338 268 L 348 267 L 357 265 L 359 264 L 362 263 L 368 262 L 369 261 L 371 259 L 380 258 L 385 257 L 387 256 L 389 255 L 404 254 L 404 252 L 407 251 L 408 250 L 409 249 L 411 248 L 418 247 L 422 245 L 424 244 L 430 243 L 432 242 L 444 241 L 450 239 L 453 238 L 468 237 L 472 236 L 474 235 L 475 234 L 480 232 L 482 231 L 486 230 L 490 229 L 493 228 L 493 226 L 495 225 L 500 224 L 514 223 L 517 222 L 522 221 L 524 219 L 541 218 L 541 217 L 542 216 L 543 215 L 544 214 L 549 212 L 554 211 L 554 210 L 554 209 L 555 208 L 561 206 L 562 205 L 564 204 L 564 203 L 567 202 L 568 201 L 569 199 L 569 198 L 570 197 L 574 196 L 575 195 L 577 193 L 583 192 L 583 191 L 602 190 L 618 189 L 621 188 L 621 186 L 621 185 L 624 184 L 624 183 L 624 182 L 626 181 L 626 179 L 626 178 L 626 177 L 627 176 L 627 175 L 628 173 L 628 172 L 629 171 L 629 170 L 631 169 L 631 168 L 633 166 L 634 165 L 635 164 L 636 163 L 636 162 L 638 160 L 638 159 L 638 158 L 640 157 L 642 156 L 644 155 L 652 153 L 656 152 L 659 151 L 659 150 L 659 149 L 659 148 L 660 146 L 660 145 L 674 144 L 685 143 L 694 142 L 695 140 L 706 139 L 708 138 L 715 137 L 715 136 L 715 135 L 721 133 L 721 132 L 721 131 L 721 130 L 722 129 L 722 127 L 723 126 L 723 125 L 723 124 L 724 123 L 725 122 L 729 120 L 733 119 L 733 118 L 746 117 L 747 116 L 763 115 L 764 113 L 767 112 L 767 111 L 770 110 L 770 109 L 776 107 L 778 106 L 783 105 L 784 104 L 784 103 L 784 102 L 799 100 L 801 99 L 804 98 L 806 97 L 809 96 L 809 94 L 810 93 L 815 92 L 815 91 L 816 90 L 816 89 L 817 87 L 818 86 L 821 85 L 822 84 L 822 83 L 826 82 L 827 80 L 827 79 L 829 78 L 829 77 L 836 76 L 837 74 L 839 73 L 846 72 L 848 71 L 852 70 L 852 69 L 853 67 L 858 66 L 860 65 L 861 64 L 866 63 L 872 61 L 873 60 L 875 59 L 887 58 L 888 57 L 889 56 L 891 54 L 895 53 L 896 52 L 897 51 L 901 50 L 901 49 L 908 47 L 909 46 L 909 45 L 910 44 L 910 43 L 911 41 L 918 40 L 919 39 L 925 38 L 927 37 L 927 36 L 928 34 L 928 33 L 932 32 L 943 31 L 943 30 L 944 28 L 944 27 L 945 26 L 945 25 L 945 24 L 945 23"></path><path stroke-width="2" d="M 945 346 L 945.000000 15.000000" /><path stroke-width="2" d="M 945 346 L 945.000000 15.000000"></path><path stroke-width="2" d="M 945 346 L 950 346" /><path stroke-width="2" d="M 945 346 L 950 346"></path><text xmlns="http://www.w3.org/2000/svg" x="955" y="352">0</text><path stroke-width="2" d="M 945 308 L 950 308" /><path d="M 945 308 L 950 308" stroke-width="2"></path><text xmlns="http://www.w3.org/2000/svg" x="955" y="314">32</text><path stroke-width="2" d="M 945 271 L 950 271" /><path stroke-width="2" d="M 945 271 L 950 271"></path><text x="955" y="277" xmlns="http://www.w3.org/2000/svg">63</text><path d="M 945 235 L 950 235" stroke-width="2" /><path stroke-width="2" d="M 945 235 L 950 235"></path><text xmlns="http://www.w3.org/2000/svg" x="955" y="241">94</text><path d="M 945 198 L 950 198" stroke-width="2" /><path stroke-width="2" d="M 945 198 L 950 198"></path><text y="204" xmlns="http://www.w3.org/2000/svg" x="955">125</text><path stroke-width="2" d="M 945 162 L 950 162" /><path stroke-width="2" d="M 945 162 L 950 162"></path><text x="955" y="168" xmlns="http://www.w3.org/2000/svg">156</text><path stroke-width="2" d="M 945 125 L 950 125" /><path stroke-width="2" d="M 945 125 L 950 125"></path><text x="955" y="131" xmlns="http://www.w3.org/2000/svg">187</text><path stroke-width="2" d="M 945 89 L 950 89" /><path stroke-width="2" d="M 945 89 L 950 89"></path><text y="95" xmlns="http://www.w3.org/2000/svg" x="955">218</text><path stroke-width="2" d="M 945 52 L 950 52" /><path stroke-width="2" d="M 945 52 L 950 52"></path><text xmlns="http://www.w3.org/2000/svg" x="955" y="58">249</text><path stroke-width="2" d="M 945 16 L 950 16" /><path stroke-width="2" d="M 945 16 L 950 16"></path><text xmlns="http://www.w3.org/2000/svg" x="955" y="22">280</text><text xmlns="http://www.w3.org/2000/svg" x="987" y="175" transform="rotate(90.00,987,175)">Stargazers</text><path stroke-width="2" d="M 57.000000 346.000000 L 945 346" /><path d="M 57.000000 346.000000 L 945 346" stroke-width="2"></path><path stroke-width="2" d="M 58 346 L 58 351" /><path stroke-width="2" d="M 58 346 L 58 351"></path><text x="25" y="368" xmlns="http://www.w3.org/2000/svg">2019-07-10</text><path stroke-width="2" d="M 157 346 L 157 351" /><path stroke-width="2" d="M 157 346 L 157 351"></path><text xmlns="http://www.w3.org/2000/svg" x="124" y="368">2020-01-21</text><path stroke-width="2" d="M 256 346 L 256 351" /><path stroke-width="2" d="M 256 346 L 256 351"></path><text xmlns="http://www.w3.org/2000/svg" x="223" y="368">2020-08-03</text><path stroke-width="2" d="M 354 346 L 354 351" /><path stroke-width="2" d="M 354 346 L 354 351"></path><text y="368" xmlns="http://www.w3.org/2000/svg" x="321">2021-02-14</text><path stroke-width="2" d="M 453 346 L 453 351" /><path d="M 453 346 L 453 351" stroke-width="2"></path><text xmlns="http://www.w3.org/2000/svg" x="420" y="368">2021-08-28</text><path stroke-width="2" d="M 551 346 L 551 351" /><path stroke-width="2" d="M 551 346 L 551 351"></path><text xmlns="http://www.w3.org/2000/svg" x="518" y="368">2022-03-11</text><path stroke-width="2" d="M 650 346 L 650 351" /><path d="M 650 346 L 650 351" stroke-width="2"></path><text xmlns="http://www.w3.org/2000/svg" x="617" y="368">2022-09-22</text><path stroke-width="2" d="M 748 346 L 748 351" /><path stroke-width="2" d="M 748 346 L 748 351"></path><text xmlns="http://www.w3.org/2000/svg" x="715" y="368">2023-04-05</text><path stroke-width="2" d="M 847 346 L 847 351" /><path stroke-width="2" d="M 847 346 L 847 351"></path><text xmlns="http://www.w3.org/2000/svg" x="814" y="368">2023-10-17</text><path stroke-width="2" d="M 945 346 L 945 351" /><path stroke-width="2" d="M 945 346 L 945 351"></path><text y="368" xmlns="http://www.w3.org/2000/svg" x="912">2024-04-29</text><text xmlns="http://www.w3.org/2000/svg" x="487" y="390">Time</text></svg>