<?xml version="1.0" standalone="no"?><!DOCTYPE svg PUBLIC "-//W3C//DTD SVG 1.1//EN" "http://www.w3.org/Graphics/SVG/1.1/DTD/svg11.dtd"><svg t="1711714696425" class="icon" viewBox="0 0 1024 1024" version="1.1" xmlns="http://www.w3.org/2000/svg" p-id="12385" xmlns:xlink="http://www.w3.org/1999/xlink" width="200" height="200"><path d="M867.12685 559.619989l-415.999992-415.999992A52.986666 52.986666 0 0 0 413.413525 127.999998H338.84686c-3.166667-26.559999-9.286666-51.046666-18-71.333332C299.733527 7.333333 271.153528 0 256.000195 0c-13.94 0-40.439999 6.34-61.259999 48.806666-10.473333 21.366666-17.946666 48.966666-21.573333 79.193332H53.333532a53.393332 53.393332 0 0 0-53.333332 53.333332v360.079993a52.986666 52.986666 0 0 0 15.62 37.713332l415.999992 415.999992a53.333332 53.333332 0 0 0 75.426665 0l360.079993-360.079993a53.399999 53.399999 0 0 0 0-75.426665z m-634.073321-491.99999C241.493529 50.373332 250.666862 42.666666 256.000195 42.666666c6 0 16.573333 9.64 25.646666 30.806666 6.493333 15.16 11.333333 33.999999 14.146667 54.526666H216.166862c3.206667-23.42 9.013333-44.359999 16.886667-60.413333z m603.899988 537.286656l-360.079993 360.046659a10.666666 10.666666 0 0 1-15.08 0l-415.999992-415.999991A10.573333 10.573333 0 0 1 42.666866 541.413323V181.33333a10.666666 10.666666 0 0 1 10.666666-10.666667h245.333329c0 47.853332-10.373333 92.159998-27.066666 115.633331-5.926667 8.326667-16.566666 14.186666-22.306667 16.113333C204.040196 314.753327 170.666863 356.219993 170.666863 405.333325c0 58.813332 47.853332 106.666665 106.666665 106.666665s106.666665-47.853332 106.666665-106.666665c0-47.086666-30.666666-87.139998-73.079999-101.246664C330.060194 272.706661 341.333527 223.693329 341.333527 170.666663h72.079998a10.573333 10.573333 0 0 1 7.54 3.126667l415.999992 415.999992a10.666666 10.666666 0 0 1 0 15.08zM277.333528 341.333327a63.999999 63.999999 0 1 1-63.999999 63.999998 64.073332 64.073332 0 0 1 63.999999-63.999998z m319.999994 682.666653a21.333333 21.333333 0 0 1-15.086667-36.419999l382.706659-382.706659a10.666666 10.666666 0 0 0 0-15.08L539.580189 164.419997a21.333333 21.333333 0 0 1 30.173333-30.173333l425.373325 425.373325a53.399999 53.399999 0 0 1 0 75.426665l-382.706659 382.706659A21.266666 21.266666 0 0 1 597.333522 1023.99998z" fill="#5C5C66" p-id="12386"></path></svg>