<?xml version="1.0" standalone="no"?><!DOCTYPE svg PUBLIC "-//W3C//DTD SVG 1.1//EN" "http://www.w3.org/Graphics/SVG/1.1/DTD/svg11.dtd"><svg t="1713756215739" class="icon" viewBox="0 0 1204 1024" version="1.1" xmlns="http://www.w3.org/2000/svg" p-id="17910" xmlns:xlink="http://www.w3.org/1999/xlink" width="235.15625" height="200"><path d="M169.357553 1021.084612C64.512 912.697224 0 765.060518 0 602.352941 0 269.685459 269.685459 0 602.352941 0s602.352941 269.685459 602.352941 602.352941c0 162.707576-64.512 310.344282-169.357553 418.731671V700.295529C1035.348329 460.016941 841.583435 265.035294 602.352941 265.035294S169.357553 459.884424 169.357553 700.295529v320.789083z" fill="#75ADE5" p-id="17911"></path><path d="M728.606118 482.725647a54.211765 54.211765 0 0 1 50.200094 33.454682 54.452706 54.452706 0 0 1-11.661553 59.283577 54.103341 54.103341 0 0 1-59.090824 11.854306 54.356329 54.356329 0 0 1-33.490823-50.236236 54.356329 54.356329 0 0 1 15.793694-38.393976 54.0672 54.0672 0 0 1 38.261459-15.950306zM476.099765 482.725647a54.211765 54.211765 0 0 1 50.176 33.466729 54.452706 54.452706 0 0 1-11.6736 59.27153 54.103341 54.103341 0 0 1-59.090824 11.854306 54.356329 54.356329 0 0 1-33.490823-50.236236 54.356329 54.356329 0 0 1 15.805741-38.406023 54.0672 54.0672 0 0 1 38.261459-15.938259z" fill="#75ADE5" p-id="17912"></path></svg>