<?xml version="1.0" standalone="no"?><!DOCTYPE svg PUBLIC "-//W3C//DTD SVG 1.1//EN" "http://www.w3.org/Graphics/SVG/1.1/DTD/svg11.dtd"><svg t="1712815871302" class="icon" viewBox="0 0 1024 1024" version="1.1" xmlns="http://www.w3.org/2000/svg" p-id="13586" xmlns:xlink="http://www.w3.org/1999/xlink" width="200" height="200"><path d="M512 0c282.771692 0 512 229.228308 512 512s-229.228308 512-512 512S0 794.771692 0 512 229.228308 0 512 0z" fill="#A47943" p-id="13587"></path><path d="M600.221538 492.465231c-0.098462-0.088615-0.098462-0.177231-0.17723-0.344616a35.702154 35.702154 0 0 0-34.688-19.495384c-19.554462 1.555692-34.254769 18.56-32.679385 37.956923 0.433231 5.001846 1.821538 9.580308 3.987692 13.725538a60.494769 60.494769 0 0 1-12.681846 67.387077l-95.625846 95.074462c-23.729231 23.552-62.336 23.552-86.065231 0a60.16 60.16 0 0 1 0-85.425231l35.643077-35.367385-0.256-0.256a35.170462 35.170462 0 0 0 12.169846-29.420307 35.524923 35.524923 0 0 0-38.242461-32.443077 35.396923 35.396923 0 0 0-23.473231 11.392l-0.088615-0.088616-36.332308 36.066462a130.412308 130.412308 0 0 0 0 185.491692c51.633231 51.249231 135.266462 51.249231 186.899692 0l95.881846-95.163077c40.162462-39.955692 48.856615-99.052308 26.436924-147.534769-0.285538-0.521846-0.462769-1.033846-0.708924-1.555692zM726.528 313.009231c-51.633231-51.239385-135.266462-51.239385-186.899692 0l-95.881846 95.172923c-40.162462 39.857231-48.856615 98.953846-26.515693 147.446154 0.265846 0.521846 0.433231 1.033846 0.699077 1.555692 0.088615 0.078769 0.088615 0.167385 0.177231 0.334769a35.682462 35.682462 0 0 0 34.678154 19.495385c19.564308-1.555692 34.254769-18.550154 32.689231-37.956923a36.036923 36.036923 0 0 0-3.997539-13.715693 60.475077 60.475077 0 0 1 12.691692-67.387076l95.714462-94.985847c23.729231-23.561846 62.326154-23.561846 86.055385 0a60.140308 60.140308 0 0 1 0 85.415385l-35.643077 35.357538 0.246153 0.265847a35.150769 35.150769 0 0 0-12.16 29.410461 35.524923 35.524923 0 0 0 38.252308 32.443077 35.377231 35.377231 0 0 0 23.473231-11.392l0.088615 0.098462 36.332308-36.066462c51.554462-51.249231 51.554462-134.331077 0-185.491692z" fill="#FFFFFF" p-id="13588"></path></svg>