<?xml version="1.0" standalone="no"?><!DOCTYPE svg PUBLIC "-//W3C//DTD SVG 1.1//EN" "http://www.w3.org/Graphics/SVG/1.1/DTD/svg11.dtd"><svg t="1712714877924" class="icon" viewBox="0 0 1024 1024" version="1.1" xmlns="http://www.w3.org/2000/svg" p-id="2769" xmlns:xlink="http://www.w3.org/1999/xlink" width="200" height="200"><path d="M194.792 478.693c16.168 0 29.33-13.163 29.33-29.346 0-16.092-13.015-29.212-29.801-29.212h-0.264l-60.607 0.177a36.27 36.27 0 0 0-4.77-0.326c-21.291 0-38.636 17.538-38.636 39.095l-0.324 423.853c0 21.646 16.962 38.579 38.637 38.579l1.678 0.057c0.707 0.03 1.385 0.06 2.032 0.06 0.824 0 1.65-0.03 1.826-0.118l59.927 0.087c0.56 0 1.002-0.118 1.09-0.118 0 0-0.03 0-0.117 0.057l3.77-0.147v-0.383c13.518-2.237 23.647-13.84 23.647-27.799 0-13.987-10.13-25.59-23.647-27.829v-0.766h-49.827l1.413-385.924h44.643zM918.228 436.302c-18.2-29.67-45.205-44.822-82.222-46.322-1.884-0.25-3.8-0.412-5.772-0.412l-195.744-0.65c13.398-40.358 20.732-83.75 20.732-122.74 0-27.255-3.006-54.686-8.895-81.543l-1.206-3.197-0.09 0.016c-12.161-46.838-53.477-79.26-101.626-79.26-55.393 0-97.18 46.249-97.18 107.577l-0.06 3.047c-0.057 2.223-0.116 4.401 0.06 6.169-2.797 101.715-83.87 187.397-188.56 199.324l-3.358 0.369-0.764 274.43v228.493l13.93 0.005 0.587 0.112 3.18-0.028 0.015-0.082 485.654 0.199 8.686-0.237c19.849 0 31.039-5.036 48.621-16.344 16.225-10.483 29.36-25.267 37.752-42.317a39.365 39.365 0 0 0 5.566-12.25l75.3-336.658c1.09-4.226 1.473-8.644 1.15-12.56 1.676-23.016-3.771-45.543-15.756-65.141z m-39.079 52.506l-0.913 3.8 0.296 0.074-80.13 355.239-0.148 0.353c-2.297 5.536-6.154 10.16-11.102 13.34a28.477 28.477 0 0 1-11.162 4.24c-0.47-0.057-0.941-0.057-1.413-0.057l-3.033 0.087-462.843-0.53-0.177-392.3c79.54-35.987 148.155-73.96 183.08-167.799l0.296 0.075 1.12-3.329c3.71-11.263 6.596-22.35 8.599-32.91 5.447-28.577 5.212-56.421 5.183-58.041-1.767-13.503 1.206-24.739 8.805-33.395 8.599-9.778 21.674-14.151 30.744-14.151 22.587 0.766 45.527 30.966 45.616 48.164 0.03 0.266 5.389 26.946 5.419 55.187 0.057 27.652-2.652 45.277-3.86 51.828h-0.5l-0.589 3.063c-5.595 29.522-15.518 57.794-29.419 84.003l-0.972 2.856 0.119 0.132a39.306 39.306 0 0 0-2.857 14.71c0 25.031 27.122 25.031 41.698 25.031l233.381 0.264 7.156 0.221c1.267 0.045 2.503 0.09 3.593 0.119v0.426l5.538-0.249c10.454 0 19.938 5.345 25.413 14.297 4.623 7.524 5.742 16.728 3.062 25.252z" p-id="2770"></path></svg>