<?xml version="1.0" standalone="no"?><!DOCTYPE svg PUBLIC "-//W3C//DTD SVG 1.1//EN" "http://www.w3.org/Graphics/SVG/1.1/DTD/svg11.dtd"><svg t="1712715044796" class="icon" viewBox="0 0 1024 1024" version="1.1" xmlns="http://www.w3.org/2000/svg" p-id="5802" xmlns:xlink="http://www.w3.org/1999/xlink" width="200" height="200"><path d="M528 67.5l-16-16.7-15.9 16.7c-7.3 7.7-179.9 190.6-179.9 420.8 0 112 40 210.1 73.5 272.7l6.2 11.6H627l5.9-13c3.1-6.8 75-167.8 75-271.3 0-230.2-172.6-413.1-179.9-420.8z m-16 48.8c19 22.9 51.9 66.1 82.3 122.5H429.8c30.3-56.4 63.3-99.6 82.2-122.5z m86.3 612.2H422.5c-25.7-50.6-62.2-140.1-62.2-240.2 0-75 20.8-145.5 47.7-205.4h208.2c26.8 59.9 47.6 130.3 47.6 205.4-0.1 78.3-48.7 200.4-65.5 240.2z" fill="#1E59E4" p-id="5803"></path><path d="M834.7 623.9H643.3l6.7-27.3c9.1-37 13.7-73.4 13.7-108.2 0-44.8-7.7-92-22.9-140.3l-17-54 49.1 28.3c99.8 57.6 161.8 164.7 161.8 279.5v22z m-135.9-44.2h90.9c-5.7-71-38.8-137.2-91.3-184.6 6.3 31.7 9.4 62.9 9.4 93.2 0.1 29.7-3 60.3-9 91.4zM380.1 623.9H189.3v-22.1c0-114.8 62-221.9 161.8-279.5l49.1-28.3-17 54c-15.2 48.3-22.9 95.5-22.9 140.3 0 34.5 4.5 71 13.4 108.4l6.4 27.2z m-145.8-44.2H325c-5.9-31.3-8.8-61.9-8.8-91.4 0-30.3 3.2-61.5 9.4-93.2-52.5 47.5-85.6 113.6-91.3 184.6zM512 529.5c-45 0-81.6-36.6-81.6-81.6s36.6-81.6 81.6-81.6 81.6 36.6 81.6 81.6-36.6 81.6-81.6 81.6z m0-119c-20.7 0-37.5 16.8-37.5 37.5s16.8 37.5 37.5 37.5 37.5-16.8 37.5-37.5-16.8-37.5-37.5-37.5z" fill="#1E59E4" p-id="5804"></path><path d="M512 999.7l-20.3-20.3c-28.8-28.6-68.3-67.9-68.3-111.6 0-48.9 39.8-88.6 88.6-88.6 48.9 0 88.6 39.8 88.6 88.6 0 43.6-24.4 67.9-64.8 108.2L512 999.7z m0-176.4c-24.5 0-44.5 20-44.5 44.5 0 21.5 23.8 48.4 44.5 69.5 33.6-33.7 44.4-47 44.4-69.5 0.1-24.6-19.9-44.5-44.4-44.5z" fill="#FF5A06" p-id="5805"></path></svg>