<?xml version="1.0" standalone="no"?><!DOCTYPE svg PUBLIC "-//W3C//DTD SVG 1.1//EN" "http://www.w3.org/Graphics/SVG/1.1/DTD/svg11.dtd"><svg t="1711716280096" class="icon" viewBox="0 0 1024 1024" version="1.1" xmlns="http://www.w3.org/2000/svg" p-id="16836" xmlns:xlink="http://www.w3.org/1999/xlink" width="200" height="200"><path d="M409.5 551.6C443 521.8 464 478 463.2 429.4c-1.4-87.8-74.3-158.5-162-157.4-87.4 1.1-157.9 72.3-157.9 160 0 47.6 20.8 90.4 53.8 119.7 3.8 3.4 3.5 9.3-0.5 12.4-42.1 32.2-69.3 82.9-69.3 140 0 17.7 14.3 32 32 32h288c17.7 0 32-14.3 32-32 0-57.1-27.2-107.8-69.3-140-4.1-3.2-4.3-9.1-0.5-12.5zM207.2 432c0-52.9 43.1-96 96-96s96 43.1 96 96-43.1 96-96 96-96-43.1-96-96z m-0.1 240c-5.7 0-9.6-5.8-7.4-11.1 5.6-13.3 13.7-25.6 24.2-36.1 21.2-21.2 49.3-32.8 79.2-32.8s58 11.6 79.2 32.8c10.5 10.5 18.7 22.8 24.2 36.1 2.2 5.3-1.6 11.1-7.4 11.1h-192z" p-id="16837" fill="#707070"></path><path d="M960 128H64c-35.3 0-64 28.7-64 64v640c0 35.3 28.7 64 64 64h160c8.8 0 16-7.2 16-16v-12c0-2.2 1.8-4 4-4h151c2.2 0 4 1.8 4 4v12c0 8.8 7.2 16 16 16h193c8.8 0 16-7.2 16-16v-12c0-2.2 1.8-4 4-4h152c2.2 0 4 1.8 4 4v12c0 8.8 7.2 16 16 16h160c35.3 0 64-28.7 64-64V192c0-35.3-28.7-64-64-64z m0 688c0 8.8-7.2 16-16 16h-92c-2.2 0-4-1.8-4-4v-12c0-8.8-7.2-16-16-16H576c-8.8 0-16 7.2-16 16v12c0 2.2-1.8 4-4 4h-88c-2.2 0-4-1.8-4-4v-12c0-8.8-7.2-16-16-16H192c-8.8 0-16 7.2-16 16v12c0 2.2-1.8 4-4 4H80c-8.8 0-16-7.2-16-16V208c0-8.8 7.2-16 16-16h864c8.8 0 16 7.2 16 16v608z" p-id="16838" fill="#707070"></path><path d="M888 432H584c-4.4 0-8-3.6-8-8v-48c0-4.4 3.6-8 8-8h304c4.4 0 8 3.6 8 8v48c0 4.4-3.6 8-8 8zM888 560H584c-4.4 0-8-3.6-8-8v-48c0-4.4 3.6-8 8-8h304c4.4 0 8 3.6 8 8v48c0 4.4-3.6 8-8 8zM888 688H584c-4.4 0-8-3.6-8-8v-48c0-4.4 3.6-8 8-8h304c4.4 0 8 3.6 8 8v48c0 4.4-3.6 8-8 8z" p-id="16839" fill="#707070"></path></svg>