<?xml version="1.0" standalone="no"?><!DOCTYPE svg PUBLIC "-//W3C//DTD SVG 1.1//EN" "http://www.w3.org/Graphics/SVG/1.1/DTD/svg11.dtd"><svg t="1717062012918" class="icon" viewBox="0 0 1024 1024" version="1.1" xmlns="http://www.w3.org/2000/svg" p-id="17447" xmlns:xlink="http://www.w3.org/1999/xlink" width="48" height="48"><path d="M469.594 900.675c-47.174 0-92.951-9.246-136.062-27.48-41.626-17.606-79.003-42.805-111.094-74.896s-57.289-69.468-74.896-111.094c-18.234-43.111-27.48-88.889-27.48-136.062 0-47.173 9.246-92.952 27.48-136.063 17.606-41.625 42.805-79.003 74.896-111.094s69.468-57.289 111.094-74.895c43.111-18.235 88.889-27.48 136.062-27.48h30v319.532h319.531v30c0 47.173-9.246 92.951-27.48 136.062-17.605 41.626-42.804 79.003-74.895 111.094s-69.468 57.289-111.094 74.896c-43.111 18.234-88.888 27.48-136.062 27.48z m-30-637.539c-66.001 6.75-127.178 35.724-174.73 83.277-54.686 54.685-84.802 127.393-84.802 204.73s30.116 150.045 84.802 204.73 127.394 84.802 204.73 84.802 150.045-30.116 204.73-84.802c47.553-47.553 76.527-108.729 83.276-174.73H439.594V263.136z" p-id="17448"></path><path d="M903.938 466.854H560.41V123.326h30c83.747 0 162.48 32.613 221.698 91.831 59.218 59.217 91.83 137.951 91.83 221.698v29.999z m-283.528-60h221.783c-6.602-56.367-31.77-108.529-72.512-149.271s-92.904-65.91-149.271-72.512v221.783z" p-id="17449"></path></svg>