<?xml version="1.0" standalone="no"?><!DOCTYPE svg PUBLIC "-//W3C//DTD SVG 1.1//EN" "http://www.w3.org/Graphics/SVG/1.1/DTD/svg11.dtd"><svg t="1716950616791" class="icon" viewBox="0 0 1024 1024" version="1.1" xmlns="http://www.w3.org/2000/svg" p-id="2520" width="48" height="48" xmlns:xlink="http://www.w3.org/1999/xlink"><path d="M884.48 372.48V146.304H661.76L512 0 362.24 146.176H160V362.24L0 512l160.128 149.76v208.768H362.24L512 1024l149.76-153.472h222.72v-208.64L1024 512 884.48 372.48zM522.24 780.16a240.896 240.896 0 0 1-123.392-21.248A271.872 271.872 0 0 0 557.312 512c0-109.568-65.28-203.776-158.464-246.784A271.872 271.872 0 0 1 783.616 512c0 149.76-121.728 268.032-261.248 268.032z" fill="#1296db" p-id="2521"></path></svg>